<svg viewBox="0 0 320 320" xmlns="http://www.w3.org/2000/svg">
  <rect width="320" height="320" rx="20" fill="#ECFBFF"/>
  <rect x="20" y="20" width="130" height="70" rx="12" fill="#fff" stroke="#ABE8FA" stroke-width="1.5"/>
  <rect x="34" y="36" width="60" height="8" rx="4" fill="#82DCF4"/>
  <rect x="34" y="52" width="90" height="14" rx="4" fill="#2A8FB0"/>
  <rect x="170" y="20" width="130" height="70" rx="12" fill="#fff" stroke="#ABE8FA" stroke-width="1.5"/>
  <rect x="184" y="36" width="60" height="8" rx="4" fill="#82DCF4"/>
  <rect x="184" y="52" width="90" height="14" rx="4" fill="#38B0D6"/>
  <rect x="20" y="106" width="280" height="194" rx="12" fill="#fff" stroke="#ABE8FA" stroke-width="1.5"/>
  <polyline points="36,260 80,220 124,240 168,180 212,200 256,150 284,170" fill="none" stroke="#60CCED" stroke-width="4" stroke-linecap="round" stroke-linejoin="round"/>
  <circle cx="36" cy="260" r="5" fill="#2A8FB0"/>
  <circle cx="124" cy="240" r="5" fill="#2A8FB0"/>
  <circle cx="212" cy="200" r="5" fill="#2A8FB0"/>
  <circle cx="284" cy="170" r="5" fill="#2A8FB0"/>
  <rect x="36" y="278" width="248" height="6" rx="3" fill="#D4F4FD"/>
</svg>
