<svg viewBox="0 0 320 320" xmlns="http://www.w3.org/2000/svg">
  <rect width="320" height="320" rx="20" fill="#ECFBFF"/>
  <rect x="20" y="20" width="280" height="30" rx="8" fill="#fff"/>
  <rect x="32" y="30" width="70" height="10" rx="4" fill="#265F75"/>
  <g>
    <rect x="20" y="64" width="60" height="34" rx="6" fill="#60CCED"/>
    <rect x="84" y="64" width="60" height="34" rx="6" fill="#D4F4FD"/>
    <rect x="148" y="64" width="60" height="34" rx="6" fill="#60CCED"/>
    <rect x="212" y="64" width="60" height="34" rx="6" fill="#60CCED"/>
    <rect x="20" y="102" width="60" height="34" rx="6" fill="#D4F4FD"/>
    <rect x="84" y="102" width="60" height="34" rx="6" fill="#38B0D6"/>
    <rect x="148" y="102" width="60" height="34" rx="6" fill="#D4F4FD"/>
    <rect x="212" y="102" width="60" height="34" rx="6" fill="#D4F4FD"/>
    <rect x="20" y="140" width="60" height="34" rx="6" fill="#38B0D6"/>
    <rect x="84" y="140" width="60" height="34" rx="6" fill="#60CCED"/>
    <rect x="148" y="140" width="60" height="34" rx="6" fill="#38B0D6"/>
    <rect x="212" y="140" width="60" height="34" rx="6" fill="#D4F4FD"/>
    <rect x="20" y="178" width="60" height="34" rx="6" fill="#60CCED"/>
    <rect x="84" y="178" width="60" height="34" rx="6" fill="#D4F4FD"/>
    <rect x="148" y="178" width="60" height="34" rx="6" fill="#60CCED"/>
    <rect x="212" y="178" width="60" height="34" rx="6" fill="#38B0D6"/>
  </g>
  <rect x="20" y="230" width="14" height="14" rx="4" fill="#60CCED"/>
  <rect x="44" y="230" width="60" height="10" rx="4" fill="#ABE8FA"/>
  <rect x="120" y="230" width="14" height="14" rx="4" fill="#D4F4FD"/>
  <rect x="144" y="230" width="60" height="10" rx="4" fill="#ABE8FA"/>
</svg>
